<svg width="56" height="56" viewBox="0 0 56 56" fill="none" xmlns="http://www.w3.org/2000/svg">
<g clip-path="url(#clip0_1200_492)">
<path d="M14.8095 17.2442C14.9531 18.1196 15.2916 18.6701 15.6233 19.0223C16.4132 24.2882 20.8242 29.178 24.8489 29.178C29.5438 29.178 33.8181 23.8881 34.6456 19.0325C34.9807 18.6872 35.326 18.1298 35.4731 17.2476C35.7398 16.2594 36.0886 14.5428 35.4799 13.7427C35.4457 13.7016 35.4115 13.664 35.3807 13.6264C35.9484 11.5542 36.6699 7.27312 34.0985 4.35635C33.8728 4.06228 32.4366 2.34572 29.3557 1.43615L27.8956 0.92666C25.4747 0.177805 23.9496 0.013672 23.888 0.00341375C23.782 -0.00684454 23.6658 0.00341375 23.5598 0.0307692C23.4743 0.0547052 23.1905 0.129933 22.9648 0.102577C22.3869 0.0205109 21.5184 0.318001 21.3645 0.376132C21.1593 0.454778 16.4747 2.33546 15.0522 6.69866C14.9189 7.05428 14.3513 8.90761 15.1069 13.4589C14.9941 13.5341 14.8915 13.6264 14.806 13.7427C14.1974 14.5428 14.5393 16.256 14.8095 17.2442ZM16.6491 7.32099C16.6594 7.30048 16.6662 7.27654 16.6765 7.24918C17.8357 3.65194 21.9458 1.9901 21.9732 1.97642C22.1612 1.90462 22.5271 1.80203 22.722 1.80203C23.1255 1.85674 23.5906 1.78494 23.8436 1.72681C24.2573 1.78494 25.543 1.99352 27.3588 2.55431L28.836 3.06038C31.5749 3.87079 32.7375 5.38902 32.7444 5.39927C32.7649 5.42321 32.7854 5.44373 32.7991 5.46424C35.1756 8.14166 33.9548 12.5732 33.5206 13.8658C33.4214 14.1701 33.4932 14.5052 33.7155 14.7309C33.8283 14.8472 33.9617 14.9258 34.1087 14.9668C34.1156 15.3874 33.9959 16.1568 33.8078 16.8304C33.801 16.8612 33.7941 16.8954 33.7873 16.9262C33.7155 17.4015 33.5548 17.7468 33.3393 17.9041C33.1581 18.0409 33.0316 18.2495 32.9974 18.4752C32.4298 22.5443 28.6616 27.4649 24.8523 27.4649C21.6449 27.4649 17.8254 22.9341 17.2851 18.4923C17.2578 18.2597 17.1381 18.0512 16.9466 17.911C16.7312 17.7468 16.5705 17.3981 16.4987 16.9296C16.4952 16.8954 16.4884 16.8612 16.4781 16.8304C16.3037 16.2047 16.1909 15.49 16.1806 15.0592C16.3414 15.0421 16.5021 14.9874 16.6389 14.8779C16.8919 14.6796 17.015 14.3582 16.9534 14.0402C16.0131 9.10252 16.6491 7.32099 16.6491 7.32099Z" fill="#21D0ED"/>
<path d="M41.7993 32.0161C39.2757 30.3508 35.4562 29.1437 35.4562 29.1437C31.623 27.7896 31.5957 26.4424 31.5957 26.4424C24.0627 41.2964 18.342 26.4903 18.342 26.4903C17.8154 28.494 10.0567 30.8466 10.0567 30.8466C7.78961 31.7151 6.83217 33.0214 6.83217 33.0214C3.48113 37.9932 3.08447 49.0551 3.08447 49.0551C3.12893 51.582 4.21972 51.8453 4.21972 51.8453C11.9271 55.2853 24.0251 55.8973 24.0251 55.8973C27.3932 55.9692 30.5015 55.7366 33.2609 55.3708C30.6177 52.8985 28.9456 49.3936 28.9456 45.4989C28.9422 38.2702 34.6526 32.3648 41.7993 32.0161Z" fill="#21D0ED"/>
<path d="M41.9529 34.0677C35.9074 34.0677 30.9868 38.9849 30.9868 45.0339C30.9868 51.0897 35.9074 56 41.9529 56C48.0053 56 52.919 51.0862 52.919 45.0339C52.919 38.9883 48.0019 34.0677 41.9529 34.0677ZM41.2314 50.4263C40.9989 50.6554 40.6228 50.6554 40.3902 50.4263L35.1141 45.1091C34.8815 44.8834 34.8815 44.5004 35.1141 44.2713L36.3758 43.0096C36.6084 42.7805 36.9845 42.7805 37.217 43.0096L40.8177 46.6376L47.8104 39.6483C48.0361 39.4157 48.4191 39.4157 48.6516 39.6483L49.9065 40.9032C50.139 41.1357 50.139 41.5187 49.9065 41.7512L41.2314 50.4263Z" fill="#21D0ED"/>
</g>
<defs>
<clipPath id="clip0_1200_492">
<rect width="56" height="56" fill="white"/>
</clipPath>
</defs>
</svg>
