<svg width="48" height="48" viewBox="0 0 48 48" fill="none" xmlns="http://www.w3.org/2000/svg">
<path d="M3.75 40.5H17.25C19.1784 40.5 21.0634 39.9282 22.6668 38.8568C24.2702 37.7855 25.5199 36.2627 26.2578 34.4812C26.9958 32.6996 27.1889 30.7392 26.8127 28.8479C26.4365 26.9566 25.5079 25.2193 24.1443 23.8557C22.7807 22.4922 21.0434 21.5636 19.1521 21.1873C17.2608 20.8111 15.3004 21.0042 13.5188 21.7422C11.7373 22.4801 10.2145 23.7298 9.14317 25.3332C8.07183 26.9366 7.5 28.8216 7.5 30.75C7.5 37.5 3.75 40.5 3.75 40.5Z" stroke="white" stroke-width="3" stroke-linecap="round" stroke-linejoin="round"/>
<path d="M21.0742 21.7875C24.6742 16.9312 33.8242 5.8125 42.1867 5.8125C42.1867 14.175 31.068 23.325 26.2117 26.925" stroke="white" stroke-width="3" stroke-linecap="round" stroke-linejoin="round"/>
<path d="M24.9375 16.9883C27.4781 18.4221 29.5787 20.5227 31.0125 23.0633" stroke="white" stroke-width="3" stroke-linecap="round" stroke-linejoin="round"/>
</svg>
