<svg width="24" height="22" viewBox="0 0 24 22" fill="none" xmlns="http://www.w3.org/2000/svg">
<path d="M3.0625 5.15625H14.0625C14.7918 5.15625 15.4913 5.44598 16.007 5.96171C16.5228 6.47743 16.8125 7.1769 16.8125 7.90625V16.1562C16.8125 16.3386 16.7401 16.5135 16.6111 16.6424C16.4822 16.7713 16.3073 16.8438 16.125 16.8438H5.125C4.39565 16.8438 3.69618 16.554 3.18046 16.0383C2.66473 15.5226 2.375 14.8231 2.375 14.0938V5.84375C2.375 5.66141 2.44743 5.48655 2.57636 5.35761C2.7053 5.22868 2.88016 5.15625 3.0625 5.15625V5.15625Z" stroke="white" stroke-width="3" stroke-linecap="round" stroke-linejoin="round"/>
<path d="M16.8125 9.625L21.625 6.875V15.125L16.8125 12.375" stroke="white" stroke-width="3" stroke-linecap="round" stroke-linejoin="round"/>
</svg>
