<svg width="39" height="38" viewBox="0 0 39 38" fill="none" xmlns="http://www.w3.org/2000/svg">
<path fill-rule="evenodd" clip-rule="evenodd" d="M6.66881 24.2038C3.43241 22.5602 2.17801 18.5342 2.30341 14.7703C9.42851 12.4833 15.7758 9.19579 20.668 3.47852C25.7609 7.95712 27.8683 12.7692 28.069 20.7973C19.2631 19.6776 12.6147 21.6787 6.66881 24.2038Z" fill="white"/>
<path fill-rule="evenodd" clip-rule="evenodd" d="M2.65458 18.0811C2.65458 18.0811 -0.907921 19.3436 0.221079 21.8688C1.34998 24.3939 4.76198 22.5835 4.76198 22.5835C3.73338 21.2494 3.00578 19.7009 2.65458 18.0811Z" fill="white"/>
<path fill-rule="evenodd" clip-rule="evenodd" d="M10.0557 22.7983C11.8369 25.8952 12.991 29.2779 13.4676 32.7559L19.815 30.0402C17.9584 27.2768 16.4782 24.3229 15.4245 21.2021C13.5931 21.6072 11.7867 22.1551 10.0557 22.7983Z" fill="white"/>
<path fill-rule="evenodd" clip-rule="evenodd" d="M21.4453 5.2167C21.4453 5.2167 28.3194 2.5962 30.6526 8.14687C32.8353 13.3639 26.212 16.294 26.212 16.294C25.6852 14.1977 23.7785 7.95627 21.4453 5.2167Z" fill="white"/>
<path fill-rule="evenodd" clip-rule="evenodd" d="M21.1695 4.57345L20.2412 4.93074L20.8684 5.66924C23.1515 8.33737 24.9829 14.412 25.4847 16.4607L25.6854 17.2946L26.5133 16.9372C27.7175 16.3655 28.8214 15.6032 29.7748 14.6741C30.7281 13.8403 31.3804 12.7206 31.6564 11.5296C31.9323 10.3146 31.8069 9.05205 31.3302 7.90854C30.8786 6.7174 30.0507 5.66924 28.9468 4.95455C27.843 4.23987 26.5384 3.88258 25.1836 3.90639C23.8289 3.90639 22.4741 4.1208 21.1695 4.57345ZM22.6497 5.57398C23.4776 5.38338 24.3306 5.28813 25.1585 5.28813C26.2122 5.24041 27.2408 5.52636 28.0938 6.09807C28.9468 6.64596 29.6242 7.4559 29.9755 8.38499C30.3518 9.29028 30.4521 10.2669 30.2263 11.2198C30.0006 12.1727 29.4737 13.0304 28.7211 13.6735C28.1189 14.2691 27.4416 14.7932 26.6889 15.222C25.8108 11.8631 24.431 8.59941 22.6497 5.57398Z" fill="white"/>
<path fill-rule="evenodd" clip-rule="evenodd" d="M7.94802 21.7498C4.71172 20.1062 3.45722 16.0801 3.58272 12.3162C10.7077 10.0292 17.055 6.74178 21.9472 1.02441C27.0402 5.50302 29.1476 10.3151 29.3483 18.3432C20.5423 17.2474 13.8939 19.2485 7.94802 21.7498Z" fill="white"/>
<path fill-rule="evenodd" clip-rule="evenodd" d="M7.59743 22.3691L7.92353 22.5359L8.24973 22.3929C14.0952 19.9154 20.6181 17.9382 29.2485 19.034L30.1015 19.1293V18.3193C29.9008 10.053 27.7181 5.09794 22.4747 0.500268L21.8976 0L21.3959 0.571708C16.5789 6.19382 10.3571 9.40985 3.35753 11.6491L2.88083 11.8158V12.2923C2.73023 16.3421 4.16033 20.6063 7.64753 22.3691H7.59743ZM7.99883 20.9636C5.33943 19.4151 4.28573 16.0562 4.31083 12.8164C11.1097 10.5771 17.2061 7.38487 21.998 2.0487C26.3633 6.09847 28.2951 10.5295 28.5711 17.557C20.1666 16.6756 13.7691 18.5576 7.99883 20.9636Z" fill="white"/>
<path fill-rule="evenodd" clip-rule="evenodd" d="M3.80884 15.6748C3.80884 15.6748 0.221236 16.9374 1.37524 19.4625C2.50424 21.9877 5.91624 20.1772 5.91624 20.1772C4.88764 18.8432 4.16004 17.2947 3.80884 15.6748Z" fill="white"/>
<path fill-rule="evenodd" clip-rule="evenodd" d="M4.53638 15.5327L4.38578 14.7227L3.55788 15.0085C2.88048 15.2706 2.25328 15.6279 1.70138 16.0806C1.12438 16.4855 0.722885 17.0811 0.547285 17.7243C0.371685 18.3913 0.421885 19.0822 0.722885 19.7015C0.923685 20.2256 1.29998 20.6544 1.80168 20.9641C2.27838 21.2738 2.85539 21.4167 3.43249 21.4167C4.41089 21.3929 5.38939 21.1785 6.26739 20.7735L7.04519 20.4162L6.51828 19.7492C5.53988 18.4866 4.86248 17.0573 4.53638 15.5327ZM3.30698 16.6761C3.65828 17.7719 4.13488 18.844 4.78718 19.8207C4.51128 19.9159 4.23528 19.9636 3.95928 20.0112C3.58298 20.1065 3.18158 20.0827 2.85538 19.9159C2.50418 19.773 2.22818 19.5109 2.05258 19.1774C1.90208 18.8202 1.87699 18.4389 2.00239 18.0817C2.10279 17.7243 2.35369 17.4146 2.65469 17.1764C2.85539 17.0096 3.08118 16.8429 3.30698 16.7237V16.6761Z" fill="white"/>
<path fill-rule="evenodd" clip-rule="evenodd" d="M11.4359 20.4398C13.2171 23.5367 14.3963 26.9195 14.8479 30.3976L21.145 27.6818C19.2885 24.9422 17.8083 21.9644 16.7546 18.8438C14.9231 19.2487 13.1419 19.7728 11.3857 20.4398H11.4359Z" fill="white"/>
<path fill-rule="evenodd" clip-rule="evenodd" d="M11.1843 19.7961L10.4316 20.082L10.7829 20.749C12.539 23.7506 13.668 27.038 14.1196 30.4208L14.22 31.4214L22.2984 27.9671L21.8468 27.3001C20.0153 24.6082 18.5602 21.6781 17.5316 18.6288L17.3309 18.0332L16.6786 18.1762C14.797 18.5812 12.9655 19.1291 11.1843 19.7961ZM12.4638 20.7967C13.7433 20.344 15.0228 19.9628 16.3274 19.6532C17.2807 22.3451 18.5602 24.9417 20.1157 27.3478L15.4493 29.3489C14.9475 26.3711 13.9189 23.4885 12.4638 20.7967Z" fill="white"/>
<path fill-rule="evenodd" clip-rule="evenodd" d="M5.33887 11.6252C5.43927 15.1271 6.81907 18.4861 9.25267 21.1303C9.40317 21.2733 9.57877 21.3447 9.77947 21.3447C9.98027 21.3447 10.1559 21.2733 10.3064 21.1303C10.4569 20.9873 10.5322 20.8206 10.5322 20.63C10.5322 20.4394 10.4569 20.2728 10.3064 20.1298C8.12367 17.7714 6.89437 14.746 6.81907 11.6014C6.81907 11.4108 6.74387 11.2441 6.59327 11.1011C6.46787 10.9821 6.26717 10.8867 6.06647 10.8867C5.86577 10.8867 5.69017 10.9582 5.53957 11.1011C5.41417 11.2441 5.33887 11.4108 5.33887 11.6252Z" fill="white"/>
<path fill-rule="evenodd" clip-rule="evenodd" d="M27.1913 35.7099L24.1807 28.7299L25.9118 27.9438L25.2846 26.443C28.7467 26.1572 35.4704 25.7045 36.3485 27.5864C37.2265 29.4684 33.1873 34.8522 30.5531 37.6633L28.822 34.9714L27.1913 35.7099Z" fill="white"/>
<path fill-rule="evenodd" clip-rule="evenodd" d="M21.1697 31.5412C22.6499 30.3976 24.3308 29.4685 26.1372 28.8492L26.8146 28.611L26.2877 27.3008L25.6103 27.5628C23.6534 28.2537 21.8471 29.2304 20.2414 30.493L19.6895 30.9455L20.6178 32.0176L21.1697 31.5412Z" fill="white"/>
<path fill-rule="evenodd" clip-rule="evenodd" d="M22.3994 33.1368C23.7793 32.2077 25.3096 31.4931 26.8902 30.9929L27.5676 30.7546L27.0658 29.4443L26.3884 29.6826C24.6573 30.2306 23.0015 31.0167 21.5213 32.0172L20.9443 32.4221L21.7973 33.5418L22.3994 33.1368Z" fill="white"/>
<path fill-rule="evenodd" clip-rule="evenodd" d="M23.5027 34.8277C24.8324 34.113 26.2624 33.5413 27.7426 33.1363L28.4451 32.9219L27.9935 31.5879L27.291 31.8023C25.6854 32.231 24.155 32.8505 22.725 33.6366L22.0977 33.994L22.8755 35.185L23.5027 34.8277Z" fill="white"/>
<path fill-rule="evenodd" clip-rule="evenodd" d="M28.245 33.6369L25.2344 26.6569L26.9655 25.847L25.9118 23.1788C29.3739 22.893 36.499 23.4409 37.4523 25.4896C38.4057 27.5384 34.1407 32.7554 31.4814 35.5426L29.9259 32.8745L28.2701 33.5892L28.245 33.6369Z" fill="white"/>
<path fill-rule="evenodd" clip-rule="evenodd" d="M24.3057 26.3474L27.8682 34.5899L29.5993 33.8276L31.3304 36.8292L32.0078 36.0907C34.2657 33.7799 36.1975 31.2072 37.7279 28.3961C38.2798 27.4432 38.4053 26.3474 38.1042 25.2992C37.8032 24.8466 37.4268 24.4415 36.9753 24.1081C36.5237 23.7984 35.9968 23.5602 35.4449 23.441C32.3339 22.6311 29.0976 22.3214 25.8612 22.5596L24.8827 22.6549L26.0619 25.5851L24.3057 26.395V26.3474ZM28.646 32.708L26.1873 27.0382L27.9184 26.2521L26.9651 23.8698C29.6746 23.7508 32.359 24.0604 34.9682 24.7513C35.4198 24.8942 35.8463 25.061 36.2477 25.2992C36.4735 25.4183 36.6491 25.6089 36.7745 25.8233C36.9 26.1806 36.9 26.5856 36.7745 26.943C36.5738 27.6099 36.2728 28.2294 35.9215 28.8249C34.7173 30.8022 33.3124 32.6602 31.7318 34.3755L30.2767 32.0171L28.646 32.708Z" fill="white"/>
<path fill-rule="evenodd" clip-rule="evenodd" d="M30.3766 27.1338C30.8282 27.1338 31.2546 27.3006 31.5557 27.5864C31.8568 27.8723 32.0324 28.2773 32.0324 28.7061C32.0324 29.1349 31.8568 29.5399 31.5557 29.8257C31.2546 30.1116 30.8282 30.2784 30.3766 30.2784C29.925 30.2784 29.4985 30.1116 29.1974 29.8257C28.8964 29.5399 28.7207 29.1349 28.7207 28.7061C28.7207 28.2773 28.8964 27.8723 29.1974 27.5864C29.5236 27.3006 29.9501 27.1338 30.3766 27.1338Z" fill="white"/>
<path fill-rule="evenodd" clip-rule="evenodd" d="M30.3772 26.4424C29.9005 26.4424 29.4238 26.5614 29.0475 26.8235C28.6461 27.0617 28.345 27.4191 28.1443 27.8479C27.9687 28.2767 27.9185 28.7293 27.9938 29.1581C28.0941 29.6108 28.3199 30.0157 28.6461 30.3254C28.9722 30.6351 29.4238 30.8734 29.8754 30.9448C30.3521 31.0401 30.8288 30.9924 31.2803 30.8256C31.7319 30.6589 32.1083 30.3493 32.3591 29.9919C32.6351 29.6108 32.7606 29.182 32.7606 28.7293C32.7606 28.1338 32.5097 27.562 32.0581 27.1333C31.6065 26.6806 31.0044 26.4424 30.3772 26.4424ZM30.3772 27.824C30.5026 27.824 30.6281 27.8479 30.7284 27.8956C30.8288 27.9432 30.9291 28.0146 31.0295 28.0861C31.1047 28.1576 31.18 28.2529 31.2302 28.372C31.2803 28.4673 31.3054 28.5863 31.2803 28.7055C31.2803 28.8723 31.2302 29.039 31.1298 29.182C31.0295 29.3248 30.8789 29.4202 30.7284 29.4916C30.5528 29.5631 30.3772 29.5631 30.2016 29.5392C30.0259 29.5154 29.8754 29.4202 29.75 29.301C29.6245 29.182 29.5493 29.039 29.4991 28.8723C29.474 28.7055 29.474 28.5387 29.5493 28.372C29.6245 28.2052 29.7249 28.0861 29.8754 27.9908C30.0259 27.8956 30.2016 27.824 30.3772 27.824Z" fill="white"/>
<path fill-rule="evenodd" clip-rule="evenodd" d="M32.0584 24.1085C33.8146 25.4187 34.9184 28.4441 34.9686 30.4214C34.9686 30.612 35.0439 30.7787 35.1944 30.9217C35.3198 31.0407 35.5206 31.1361 35.7213 31.1361C35.922 31.1361 36.0976 31.0645 36.2481 30.9217C36.3735 30.8025 36.4739 30.612 36.4739 30.4214C36.4739 28.0867 35.069 24.5611 33.0117 23.0364C32.9365 22.9888 32.8361 22.9412 32.7608 22.9174C32.6605 22.8936 32.5601 22.8936 32.4598 22.8936C32.3594 22.8936 32.2591 22.9412 32.1838 22.9888C32.1086 23.0364 32.0333 23.108 31.958 23.1794C31.8577 23.3223 31.8075 23.5129 31.8326 23.6797C31.8075 23.8465 31.9078 24.0132 32.0584 24.1085Z" fill="white"/>
</svg>
