<svg width="27" height="30" viewBox="0 0 27 30" fill="none" xmlns="http://www.w3.org/2000/svg">
<path d="M6.74977 8.79565C7.89683 8.79565 8.8267 7.86945 8.8267 6.72693C8.8267 5.5844 7.89683 4.6582 6.74977 4.6582C5.60272 4.6582 4.67285 5.5844 4.67285 6.72693C4.67285 7.86945 5.60272 8.79565 6.74977 8.79565Z" fill="white"/>
<path d="M19.7309 11.3809C18.492 11.3824 17.3043 11.8732 16.4282 12.7458C15.5522 13.6184 15.0594 14.8015 15.0578 16.0355V23.5346C15.0578 24.5634 14.6476 25.55 13.9172 26.2774C13.1869 27.0048 12.1964 27.4135 11.1636 27.4135C10.1308 27.4135 9.14028 27.0048 8.40997 26.2774C7.67966 25.55 7.26938 24.5634 7.26938 23.5346V21.0351L9.86553 20.1729V19.1386H3.63477V20.1729L6.23092 21.0351V23.5346C6.23092 24.8377 6.75061 26.0874 7.67567 27.0088C8.60073 27.9302 9.85538 28.4478 11.1636 28.4478C12.4718 28.4478 13.7265 27.9302 14.6516 27.0088C15.5766 26.0874 16.0963 24.8377 16.0963 23.5346V16.0355C16.0963 15.0753 16.4792 14.1545 17.1609 13.4756C17.8425 12.7966 18.767 12.4152 19.7309 12.4152C20.6949 12.4152 21.6194 12.7966 22.301 13.4756C22.9826 14.1545 23.3655 15.0753 23.3655 16.0355V19.7023C23.7089 19.6402 24.0606 19.6402 24.404 19.7023V16.0355C24.4025 14.8015 23.9097 13.6184 23.0336 12.7458C22.1576 11.8732 20.9698 11.3824 19.7309 11.3809Z" fill="white"/>
<path d="M24.4043 19.7031V23.2768H27.0005V22.7597C26.9997 22.0269 26.7386 21.318 26.2635 20.7586C25.7883 20.1991 25.1297 19.8253 24.4043 19.7031Z" fill="white"/>
<path d="M20.7686 26.8965C20.7686 27.7194 21.0968 28.5087 21.681 29.0907C22.2653 29.6726 23.0577 29.9995 23.8839 29.9995C24.7102 29.9995 25.5026 29.6726 26.0868 29.0907C26.6711 28.5087 26.9993 27.7194 26.9993 26.8965V24.3105H20.7686V26.8965Z" fill="white"/>
<path d="M20.7686 22.7597V23.2768H23.3647V19.7031C22.6393 19.8253 21.9807 20.1991 21.5055 20.7586C21.0304 21.318 20.7693 22.0269 20.7686 22.7597Z" fill="white"/>
<path d="M9.86553 17.0703H3.63477V18.1047H9.86553V17.0703Z" fill="white"/>
<path d="M3.63462 15.0017V16.0361H6.23077V9.78338C5.46054 9.6537 4.76733 9.24055 4.28851 8.62579C3.80969 8.01103 3.5802 7.23954 3.64553 6.4642C3.71085 5.68885 4.06622 4.96625 4.64121 4.43958C5.2162 3.91291 5.96885 3.62061 6.75 3.62061C7.53115 3.62061 8.2838 3.91291 8.85879 4.43958C9.43378 4.96625 9.78915 5.68885 9.85447 6.4642C9.9198 7.23954 9.69031 8.01103 9.21149 8.62579C8.73267 9.24055 8.03946 9.6537 7.26923 9.78338V16.0361H9.86539V14.4272C9.85851 13.9553 9.95696 13.4878 10.1536 13.0585C10.3503 12.6292 10.6402 12.2488 11.0025 11.9447C12.0857 11.0694 12.8701 9.88146 13.2478 8.5441C13.6255 7.20674 13.578 5.78567 13.1118 4.47628C12.6457 3.1669 11.7837 2.0335 10.6445 1.23194C9.50531 0.43037 8.14478 0 6.75 0C5.35522 0 3.99469 0.43037 2.85548 1.23194C1.71626 2.0335 0.854319 3.1669 0.388157 4.47628C-0.0780056 5.78567 -0.125492 7.20674 0.252227 8.5441C0.629946 9.88146 1.41432 11.0694 2.4975 11.9447C2.85979 12.2488 3.14974 12.6292 3.34639 13.0585C3.54304 13.4878 3.64149 13.9553 3.63462 14.4272V15.0017Z" fill="white"/>
</svg>
