<svg width="34" height="34" viewBox="0 0 34 34" fill="none" xmlns="http://www.w3.org/2000/svg">
<path d="M4.87405 22.9763L8.08811 4.76767C8.11057 4.63024 8.16016 4.49866 8.234 4.3806C8.30783 4.26253 8.40443 4.16035 8.51815 4.07999C8.63188 3.99964 8.76047 3.94273 8.89641 3.91258C9.03236 3.88243 9.17295 3.87965 9.30998 3.90439L16.6412 5.19267C16.9182 5.24446 17.1638 5.40287 17.3253 5.63384C17.4867 5.86481 17.5511 6.1499 17.5045 6.42782L14.2772 24.7427C14.0562 25.9759 13.3612 27.0736 12.341 27.8009C11.3208 28.5282 10.0565 28.8272 8.81858 28.6341C6.17561 28.2091 4.4092 25.6192 4.87405 22.9763Z" stroke="white" stroke-width="3" stroke-linecap="round" stroke-linejoin="round"/>
<path d="M15.7109 16.5746L25.393 13.055C25.5246 13.0064 25.6646 12.9844 25.8048 12.9902C25.945 12.9959 26.0826 13.0294 26.2098 13.0887C26.337 13.148 26.4512 13.2318 26.5458 13.3355C26.6404 13.4391 26.7135 13.5605 26.7609 13.6925L29.3109 20.6785C29.405 20.9427 29.3908 21.2334 29.2713 21.4872C29.1519 21.741 28.937 21.9372 28.6734 22.0332L11.1953 28.3949" stroke="white" stroke-width="3" stroke-linecap="round" stroke-linejoin="round"/>
<path d="M29.2188 21.582V27.625C29.2188 27.9068 29.1068 28.177 28.9076 28.3763C28.7083 28.5756 28.438 28.6875 28.1562 28.6875H9.5625" stroke="white" stroke-width="3" stroke-linecap="round" stroke-linejoin="round"/>
<path d="M9.5625 25.5C10.4427 25.5 11.1562 24.7865 11.1562 23.9062C11.1562 23.026 10.4427 22.3125 9.5625 22.3125C8.6823 22.3125 7.96875 23.026 7.96875 23.9062C7.96875 24.7865 8.6823 25.5 9.5625 25.5Z" fill="white"/>
</svg>
