<svg width="21" height="20" viewBox="0 0 21 20" fill="none" xmlns="http://www.w3.org/2000/svg">
<path d="M11.8861 5.22282V0.970594C11.8861 0.749609 11.7825 0.551885 11.6193 0.42162C11.5832 0.393706 11.5448 0.368119 11.5042 0.344857C11.4006 0.291355 11.2804 0.258789 11.153 0.258789H0.892261C0.488465 0.258789 0.15918 0.577473 0.15918 0.970594V18.7029C0.15918 19.0958 0.488465 19.4124 0.892261 19.4124H11.153C11.5592 19.4124 11.8863 19.096 11.8863 18.7029V13.4877H10.848V15.9534H1.19751V1.41256H10.8477V5.22282H11.8861ZM6.02142 16.5745C6.60549 16.5745 7.07658 17.0327 7.07658 17.5959C7.07658 18.1588 6.60549 18.6148 6.02142 18.6148C5.43977 18.6148 4.96867 18.1588 4.96867 17.5959C4.96867 17.0327 5.43977 16.5745 6.02142 16.5745Z" fill="white"/>
<path d="M8.17532 8.68214V11.848C8.17532 12.1246 7.94458 12.3503 7.65855 12.3503H4.38733C4.10131 12.3503 3.86816 12.1246 3.86816 11.848V8.68214C3.86816 8.40533 4.10131 8.17969 4.38733 8.17969H7.65855C7.94458 8.17969 8.17532 8.40533 8.17532 8.68214Z" fill="white"/>
<path d="M20.2663 3.6085V7.76767C20.2663 8.13288 19.9609 8.4283 19.5861 8.4283H17.3484V6.5697C17.3484 5.82766 16.7235 5.22285 15.9568 5.22285H14.6084V3.6085C14.6084 3.24562 14.9136 2.9502 15.2886 2.9502H19.5861C19.9611 2.9502 20.2663 3.24562 20.2663 3.6085Z" fill="white"/>
<path d="M16.8684 6.56912V10.8725H15.2316C14.6812 10.8725 14.2341 11.3075 14.2341 11.8402V13.0219H10.201C9.69624 13.0219 9.29004 12.6288 9.29004 12.1403V6.56912C9.29004 6.08295 9.69624 5.6875 10.201 5.6875H15.9575C16.4598 5.6875 16.8684 6.08295 16.8684 6.56912Z" fill="white"/>
<path d="M19.0196 11.8413V15.0072C19.0196 15.284 18.7889 15.5097 18.5028 15.5097H15.2316C14.9456 15.5097 14.7148 15.284 14.7148 15.0072V11.8413C14.7148 11.5645 14.9456 11.3389 15.2316 11.3389H18.5028C18.7889 11.3389 19.0196 11.5645 19.0196 11.8413Z" fill="white"/>
</svg>
